<svg version="1.1" id="Layer_1" xmlns="http://www.w3.org/2000/svg" xmlns:xlink="http://www.w3.org/1999/xlink" x="0px" y="0px"
	 width="100%" viewBox="0 0 2000 2000" enable-background="new 0 0 2000 2000" xml:space="preserve">
<path fill="#FFFFFF" opacity="1.000000" stroke="none" 
	d="
M1375.000000,2001.000000 
	C916.666687,2001.000000 458.833344,2001.000000 1.000000,2001.000000 
	C1.000000,1334.333374 1.000000,667.666687 1.000000,1.000000 
	C667.666687,1.000000 1334.333374,1.000000 2001.000000,1.000000 
	C2001.000000,667.666687 2001.000000,1334.333374 2001.000000,2001.000000 
	C1792.500000,2001.000000 1584.000000,2001.000000 1375.000000,2001.000000 
M534.437439,1652.066528 
	C573.114075,1674.521973 613.425476,1693.514404 655.467346,1708.758179 
	C700.166077,1724.965332 745.887024,1737.535400 793.012146,1744.073730 
	C822.829468,1748.210815 852.824219,1751.786377 882.859314,1753.457275 
	C921.133301,1755.586426 959.423096,1753.529663 997.579102,1749.141357 
	C1043.167480,1743.898438 1087.939697,1734.843506 1131.827393,1721.546875 
	C1183.929443,1705.761597 1233.681152,1684.400024 1281.148438,1657.705933 
	C1368.199463,1608.751587 1442.560669,1544.929565 1504.470093,1466.657349 
	C1551.180176,1407.602173 1587.924805,1342.766602 1615.264893,1272.609985 
	C1616.550293,1269.311401 1617.541626,1265.898071 1618.850952,1261.999390 
	C1611.272461,1263.159912 1604.555420,1264.106079 1597.867554,1265.227417 
	C1572.759033,1269.437622 1547.669189,1273.759155 1522.555542,1277.938721 
	C1480.696045,1284.905273 1438.823486,1291.793457 1396.956665,1298.716675 
	C1373.973999,1302.517090 1350.989990,1306.308960 1328.010498,1310.129028 
	C1309.462280,1313.212158 1290.908569,1316.267578 1272.390137,1319.521729 
	C1270.266235,1319.894897 1267.842651,1320.997314 1266.416260,1322.549927 
	C1227.845093,1364.537720 1183.450195,1398.895264 1132.853027,1425.250000 
	C1069.989746,1457.993774 1003.071533,1475.646484 932.371948,1478.775879 
	C878.018372,1481.181763 824.676331,1474.469727 772.611755,1458.588867 
	C700.150085,1436.486328 636.424500,1399.192505 581.567627,1346.994385 
	C535.039612,1302.721558 498.857758,1251.077759 473.013214,1192.215210 
	C449.120819,1137.798950 436.100952,1080.839966 433.295105,1021.571411 
	C431.707794,988.042297 433.826599,954.668701 439.332245,921.514709 
	C447.298553,873.543457 462.125916,827.817383 484.098053,784.457214 
	C515.497742,722.492371 558.282837,669.682251 612.482788,626.214417 
	C671.567444,578.829041 738.268799,547.202637 812.271484,531.393494 
	C855.635864,522.129700 899.580933,518.997192 943.917297,522.081726 
	C976.740173,524.365295 1009.026733,529.705994 1040.704102,538.543030 
	C1084.754150,550.831665 1126.208374,569.077820 1165.015991,593.312683 
	C1211.932617,622.611450 1252.654053,658.854675 1287.074219,702.153381 
	C1327.493042,752.998291 1356.296021,809.788208 1373.757324,872.318848 
	C1374.709961,875.730652 1376.199951,876.828430 1379.551636,876.956360 
	C1391.698853,877.420288 1403.834717,878.170532 1415.977539,878.756592 
	C1451.417847,880.466858 1486.859253,882.150085 1522.300293,883.843689 
	C1562.568726,885.768005 1602.836060,887.713135 1643.106812,889.587463 
	C1647.690918,889.800781 1652.293579,889.616333 1657.227417,889.616333 
	C1657.103638,887.762512 1657.185425,886.253906 1656.880859,884.827759 
	C1650.803467,856.366516 1645.788696,827.620911 1638.328491,799.525024 
	C1624.575562,747.729980 1604.471436,698.287964 1579.495239,650.823303 
	C1554.814941,603.920959 1525.498657,560.139709 1491.647827,519.409790 
	C1456.819214,477.503326 1417.824341,439.847534 1374.801147,406.395020 
	C1317.637817,361.947876 1255.384155,326.399811 1187.985474,299.911987 
	C1137.626953,280.120941 1085.818481,265.401550 1032.234131,257.755920 
	C1003.423462,253.645081 974.409668,250.242355 945.370544,248.638260 
	C913.295044,246.866409 881.126404,247.730362 849.017456,250.681366 
	C816.144714,253.702530 783.554443,258.303101 751.331299,265.322601 
	C707.346252,274.904297 664.527283,288.359131 623.007324,305.774109 
	C555.622681,334.037628 493.514191,371.158020 436.936707,417.448883 
	C395.805511,451.101868 358.591949,488.621185 325.303986,530.081360 
	C288.430542,576.007263 257.358185,625.541504 232.099548,678.709534 
	C212.058456,720.894958 196.247833,764.629272 184.403763,809.834656 
	C175.697952,843.062256 169.304642,876.707336 165.155579,910.766296 
	C159.642242,956.024536 158.580948,1001.447937 161.246719,1046.956909 
	C163.528915,1085.917847 168.887695,1124.469849 177.233765,1162.581909 
	C186.685287,1205.742065 199.870209,1247.752319 216.780106,1288.588989 
	C251.227951,1371.778931 299.159851,1446.358154 360.251312,1512.423462 
	C411.146515,1567.462280 469.091583,1613.831177 534.437439,1652.066528 
M1312.070190,790.376648 
	C1307.628784,782.601868 1303.486572,774.636353 1298.678223,767.095581 
	C1290.757324,754.673523 1282.889771,742.167664 1274.132324,730.339233 
	C1256.993530,707.190186 1237.492554,686.115479 1216.166870,666.711487 
	C1197.088135,649.351807 1176.868774,633.573486 1155.195679,619.527771 
	C1135.066162,606.482300 1113.860229,595.443054 1092.085083,585.705078 
	C1076.107666,578.559937 1059.200439,573.340210 1042.425293,568.180420 
	C1028.388916,563.862976 1014.000061,560.624329 999.658813,557.388855 
	C990.311951,555.280151 980.764282,554.068848 971.319458,552.383728 
	C966.138794,551.459290 961.012329,549.715515 955.813599,549.501160 
	C937.845947,548.760498 919.819397,547.631897 901.888550,548.387756 
	C887.545288,548.992371 873.059692,548.115906 858.771057,551.862915 
	C848.582764,554.534668 837.642517,554.218201 827.299377,556.448425 
	C812.130310,559.719238 797.095764,563.731079 782.184021,568.049316 
	C760.538940,574.317444 739.193542,581.473267 719.244507,592.247192 
	C707.002502,598.858887 694.125916,604.436951 682.429138,611.884583 
	C663.555664,623.902039 644.242798,635.694214 627.277222,650.123169 
	C606.936462,667.422668 588.203308,686.774414 569.980957,706.360413 
	C548.450012,729.502502 530.945984,755.736023 515.955017,783.612305 
	C504.796936,804.361084 494.336304,825.387085 486.787964,847.791138 
	C480.815186,865.518860 474.245697,883.041321 471.087189,901.591431 
	C469.027466,913.688232 466.722565,925.743103 464.538330,937.818726 
	C463.418854,944.007751 461.438263,950.190979 461.367218,956.394226 
	C461.027771,986.025879 461.207275,1015.663452 461.216156,1045.298950 
	C461.216400,1046.127441 461.312531,1046.967285 461.465027,1047.782837 
	C463.567535,1059.024292 465.870087,1070.231689 467.764709,1081.507812 
	C471.388916,1103.077515 476.032654,1124.369995 483.817993,1144.877075 
	C490.386261,1162.178467 495.836456,1179.918335 505.002991,1196.176270 
	C511.583313,1207.847046 516.944519,1220.254395 524.101257,1231.539429 
	C535.121033,1248.915894 546.463928,1266.194824 559.080200,1282.418335 
	C569.849182,1296.266113 581.913269,1309.298584 594.653564,1321.373779 
	C610.917847,1336.788696 627.817688,1351.690186 645.610535,1365.286011 
	C660.045959,1376.316650 675.936890,1385.548584 691.659058,1394.764771 
	C716.215393,1409.159302 742.257935,1420.532715 769.335876,1429.231567 
	C785.385986,1434.387817 801.773926,1438.655640 818.230652,1442.335815 
	C833.755005,1445.807617 849.485901,1448.708252 865.279907,1450.513428 
	C878.643677,1452.040894 892.226562,1451.979614 905.714355,1452.021484 
	C930.149292,1452.097412 954.594971,1451.891846 978.759705,1447.437622 
	C991.673218,1445.057129 1004.784180,1443.450806 1017.463135,1440.170166 
	C1033.764282,1435.951782 1049.881836,1430.861694 1065.778931,1425.292114 
	C1080.130859,1420.263794 1094.482788,1414.902588 1108.097534,1408.192627 
	C1123.085571,1400.805786 1137.316162,1391.853760 1151.727539,1383.331299 
	C1178.177002,1367.689209 1201.669556,1348.195557 1223.942749,1327.169434 
	C1242.136108,1309.994751 1258.982666,1291.564331 1273.564453,1271.228760 
	C1284.463501,1256.029053 1295.677002,1240.888306 1304.823730,1224.637085 
	C1319.047974,1199.364868 1331.643677,1173.187622 1340.092773,1145.241577 
	C1343.380371,1134.367554 1347.757324,1123.797119 1350.586670,1112.817383 
	C1353.517944,1101.442017 1355.235229,1089.749390 1357.371338,1078.174805 
	C1359.234253,1068.081543 1361.429688,1058.014404 1362.570679,1047.833862 
	C1363.587891,1038.756592 1363.548462,1029.542114 1363.650513,1020.384644 
	C1363.933960,994.960144 1364.993530,969.503479 1360.577637,944.255432 
	C1357.772583,928.218628 1356.014893,911.947876 1352.275513,896.139648 
	C1348.557617,880.422485 1343.106323,865.101624 1338.129883,849.699158 
	C1331.536377,829.292236 1322.707275,809.836731 1312.070190,790.376648 
z"/>
<path fill="#FFCC01" opacity="1.000000" stroke="none" 
	d="
M534.113403,1651.899292 
	C469.091583,1613.831177 411.146515,1567.462280 360.251312,1512.423462 
	C299.159851,1446.358154 251.227951,1371.778931 216.780106,1288.588989 
	C199.870209,1247.752319 186.685287,1205.742065 177.233765,1162.581909 
	C168.887695,1124.469849 163.528915,1085.917847 161.246719,1046.956909 
	C158.580948,1001.447937 159.642242,956.024536 165.155579,910.766296 
	C169.304642,876.707336 175.697952,843.062256 184.403763,809.834656 
	C196.247833,764.629272 212.058456,720.894958 232.099548,678.709534 
	C257.358185,625.541504 288.430542,576.007263 325.303986,530.081360 
	C358.591949,488.621185 395.805511,451.101868 436.936707,417.448883 
	C493.514191,371.158020 555.622681,334.037628 623.007324,305.774109 
	C664.527283,288.359131 707.346252,274.904297 751.331299,265.322601 
	C783.554443,258.303101 816.144714,253.702530 849.017456,250.681366 
	C881.126404,247.730362 913.295044,246.866409 945.370544,248.638260 
	C974.409668,250.242355 1003.423462,253.645081 1032.234131,257.755920 
	C1085.818481,265.401550 1137.626953,280.120941 1187.985474,299.911987 
	C1255.384155,326.399811 1317.637817,361.947876 1374.801147,406.395020 
	C1417.824341,439.847534 1456.819214,477.503326 1491.647827,519.409790 
	C1525.498657,560.139709 1554.814941,603.920959 1579.495239,650.823303 
	C1604.471436,698.287964 1624.575562,747.729980 1638.328491,799.525024 
	C1645.788696,827.620911 1650.803467,856.366516 1656.880859,884.827759 
	C1657.185425,886.253906 1657.103638,887.762512 1657.227417,889.616333 
	C1652.293579,889.616333 1647.690918,889.800781 1643.106812,889.587463 
	C1602.836060,887.713135 1562.568726,885.768005 1522.300293,883.843689 
	C1486.859253,882.150085 1451.417847,880.466858 1415.977539,878.756592 
	C1403.834717,878.170532 1391.698853,877.420288 1379.551636,876.956360 
	C1376.199951,876.828430 1374.709961,875.730652 1373.757324,872.318848 
	C1356.296021,809.788208 1327.493042,752.998291 1287.074219,702.153381 
	C1252.654053,658.854675 1211.932617,622.611450 1165.015991,593.312683 
	C1126.208374,569.077820 1084.754150,550.831665 1040.704102,538.543030 
	C1009.026733,529.705994 976.740173,524.365295 943.917297,522.081726 
	C899.580933,518.997192 855.635864,522.129700 812.271484,531.393494 
	C738.268799,547.202637 671.567444,578.829041 612.482788,626.214417 
	C558.282837,669.682251 515.497742,722.492371 484.098053,784.457214 
	C462.125916,827.817383 447.298553,873.543457 439.332245,921.514709 
	C433.826599,954.668701 431.707794,988.042297 433.295105,1021.571411 
	C436.100952,1080.839966 449.120819,1137.798950 473.013214,1192.215210 
	C498.857758,1251.077759 535.039612,1302.721558 581.567627,1346.994385 
	C636.424500,1399.192505 700.150085,1436.486328 772.611755,1458.588867 
	C824.676331,1474.469727 878.018372,1481.181763 932.371948,1478.775879 
	C1003.071533,1475.646484 1069.989746,1457.993774 1132.853027,1425.250000 
	C1183.450195,1398.895264 1227.845093,1364.537720 1266.416260,1322.549927 
	C1267.842651,1320.997314 1270.266235,1319.894897 1272.390137,1319.521729 
	C1290.908569,1316.267578 1309.462280,1313.212158 1328.010498,1310.129028 
	C1350.989990,1306.308960 1373.973999,1302.517090 1396.956665,1298.716675 
	C1438.823486,1291.793457 1480.696045,1284.905273 1522.555542,1277.938721 
	C1547.669189,1273.759155 1572.759033,1269.437622 1597.867554,1265.227417 
	C1604.555420,1264.106079 1611.272461,1263.159912 1618.850952,1261.999390 
	C1617.541626,1265.898071 1616.550293,1269.311401 1615.264893,1272.609985 
	C1587.924805,1342.766602 1551.180176,1407.602173 1504.470093,1466.657349 
	C1442.560669,1544.929565 1368.199463,1608.751587 1281.148438,1657.705933 
	C1233.681152,1684.400024 1183.929443,1705.761597 1131.827393,1721.546875 
	C1087.939697,1734.843506 1043.167480,1743.898438 997.579102,1749.141357 
	C959.423096,1753.529663 921.133301,1755.586426 882.859314,1753.457275 
	C852.824219,1751.786377 822.829468,1748.210815 793.012146,1744.073730 
	C745.887024,1737.535400 700.166077,1724.965332 655.467346,1708.758179 
	C613.425476,1693.514404 573.114075,1674.521973 534.113403,1651.899292 
z"/>
<path fill="#FDCE0F" opacity="1.000000" stroke="none" 
	d="
M1312.220947,790.717285 
	C1322.707275,809.836731 1331.536377,829.292236 1338.129883,849.699158 
	C1343.106323,865.101624 1348.557617,880.422485 1352.275513,896.139648 
	C1356.014893,911.947876 1357.772583,928.218628 1360.577637,944.255432 
	C1364.993530,969.503479 1363.933960,994.960144 1363.650513,1020.384644 
	C1363.548462,1029.542114 1363.587891,1038.756592 1362.570679,1047.833862 
	C1361.429688,1058.014404 1359.234253,1068.081543 1357.371338,1078.174805 
	C1355.235229,1089.749390 1353.517944,1101.442017 1350.586670,1112.817383 
	C1347.757324,1123.797119 1343.380371,1134.367554 1340.092773,1145.241577 
	C1331.643677,1173.187622 1319.047974,1199.364868 1304.823730,1224.637085 
	C1295.677002,1240.888306 1284.463501,1256.029053 1273.564453,1271.228760 
	C1258.982666,1291.564331 1242.136108,1309.994751 1223.942749,1327.169434 
	C1201.669556,1348.195557 1178.177002,1367.689209 1151.727539,1383.331299 
	C1137.316162,1391.853760 1123.085571,1400.805786 1108.097534,1408.192627 
	C1094.482788,1414.902588 1080.130859,1420.263794 1065.778931,1425.292114 
	C1049.881836,1430.861694 1033.764282,1435.951782 1017.463135,1440.170166 
	C1004.784180,1443.450806 991.673218,1445.057129 978.759705,1447.437622 
	C954.594971,1451.891846 930.149292,1452.097412 905.714355,1452.021484 
	C892.226562,1451.979614 878.643677,1452.040894 865.279907,1450.513428 
	C849.485901,1448.708252 833.755005,1445.807617 818.230652,1442.335815 
	C801.773926,1438.655640 785.385986,1434.387817 769.335876,1429.231567 
	C742.257935,1420.532715 716.215393,1409.159302 691.659058,1394.764771 
	C675.936890,1385.548584 660.045959,1376.316650 645.610535,1365.286011 
	C627.817688,1351.690186 610.917847,1336.788696 594.653564,1321.373779 
	C581.913269,1309.298584 569.849182,1296.266113 559.080200,1282.418335 
	C546.463928,1266.194824 535.121033,1248.915894 524.101257,1231.539429 
	C516.944519,1220.254395 511.583313,1207.847046 505.002991,1196.176270 
	C495.836456,1179.918335 490.386261,1162.178467 483.817993,1144.877075 
	C476.032654,1124.369995 471.388916,1103.077515 467.764709,1081.507812 
	C465.870087,1070.231689 463.567535,1059.024292 461.465027,1047.782837 
	C461.312531,1046.967285 461.216400,1046.127441 461.216156,1045.298950 
	C461.207275,1015.663452 461.027771,986.025879 461.367218,956.394226 
	C461.438263,950.190979 463.418854,944.007751 464.538330,937.818726 
	C466.722565,925.743103 469.027466,913.688232 471.087189,901.591431 
	C474.245697,883.041321 480.815186,865.518860 486.787964,847.791138 
	C494.336304,825.387085 504.796936,804.361084 515.955017,783.612305 
	C530.945984,755.736023 548.450012,729.502502 569.980957,706.360413 
	C588.203308,686.774414 606.936462,667.422668 627.277222,650.123169 
	C644.242798,635.694214 663.555664,623.902039 682.429138,611.884583 
	C694.125916,604.436951 707.002502,598.858887 719.244507,592.247192 
	C739.193542,581.473267 760.538940,574.317444 782.184021,568.049316 
	C797.095764,563.731079 812.130310,559.719238 827.299377,556.448425 
	C837.642517,554.218201 848.582764,554.534668 858.771057,551.862915 
	C873.059692,548.115906 887.545288,548.992371 901.888550,548.387756 
	C919.819397,547.631897 937.845947,548.760498 955.813599,549.501160 
	C961.012329,549.715515 966.138794,551.459290 971.319458,552.383728 
	C980.764282,554.068848 990.311951,555.280151 999.658813,557.388855 
	C1014.000061,560.624329 1028.388916,563.862976 1042.425293,568.180420 
	C1059.200439,573.340210 1076.107666,578.559937 1092.085083,585.705078 
	C1113.860229,595.443054 1135.066162,606.482300 1155.195679,619.527771 
	C1176.868774,633.573486 1197.088135,649.351807 1216.166870,666.711487 
	C1237.492554,686.115479 1256.993530,707.190186 1274.132324,730.339233 
	C1282.889771,742.167664 1290.757324,754.673523 1298.678223,767.095581 
	C1303.486572,774.636353 1307.628784,782.601868 1312.220947,790.717285 
M484.071198,1116.412231 
	C486.317474,1123.544189 488.696014,1130.637695 490.786011,1137.815186 
	C497.980743,1162.523315 508.497528,1185.870239 520.577759,1208.463501 
	C535.427429,1236.236450 552.985352,1262.206787 573.428528,1286.303589 
	C591.368042,1307.449463 610.979858,1326.806396 632.369507,1344.306519 
	C652.722717,1360.958618 674.508362,1375.593262 697.573853,1388.378174 
	C727.087036,1404.736694 757.879639,1418.020874 790.425415,1426.710327 
	C809.936768,1431.919556 829.894409,1435.698242 849.841431,1438.957764 
	C865.512939,1441.518677 881.445740,1442.916504 897.317810,1443.679321 
	C910.577393,1444.316528 923.918823,1443.343018 937.221130,1442.977539 
	C958.025879,1442.406006 978.479858,1439.115967 998.888062,1435.229858 
	C1034.531128,1428.442993 1068.646362,1417.018555 1101.384521,1401.563477 
	C1125.487305,1390.184814 1148.308105,1376.557495 1170.024536,1361.012085 
	C1206.293701,1335.049316 1237.889404,1304.332153 1264.904053,1268.913574 
	C1282.590820,1245.724487 1297.912231,1221.062744 1310.691895,1194.776733 
	C1321.923462,1171.674683 1331.092651,1147.850952 1338.330078,1123.234131 
	C1344.146973,1103.448975 1348.739990,1083.407349 1350.943481,1062.888916 
	C1352.784912,1045.741455 1355.182983,1028.580444 1355.653198,1011.379517 
	C1356.128784,993.980774 1355.253662,976.459351 1353.648315,959.114014 
	C1352.093872,942.316345 1349.650269,925.507568 1346.177246,909.002380 
	C1340.737793,883.150085 1333.005249,857.922424 1322.994019,833.379517 
	C1312.015381,806.465027 1298.543335,780.886963 1282.535156,756.723450 
	C1261.412231,724.839478 1237.055664,695.531677 1207.852905,670.699585 
	C1191.173340,656.516357 1173.881348,642.923279 1155.942139,630.384949 
	C1133.964478,615.023926 1110.136108,602.719421 1085.374390,592.286865 
	C1059.578125,581.418396 1033.114746,572.612793 1005.668640,567.145935 
	C990.247620,564.074219 974.618103,561.954773 959.017334,559.902100 
	C936.281433,556.910583 913.500549,554.444275 890.493713,557.053833 
	C878.791626,558.381104 866.920837,558.538330 855.330322,560.456970 
	C837.844910,563.351440 820.465881,567.005005 803.171509,570.910950 
	C774.001038,577.499268 745.958252,587.753845 719.433350,601.306702 
	C698.181152,612.165527 677.732971,624.790649 657.738892,637.871399 
	C631.341736,655.141235 608.039246,676.360229 586.718079,699.526978 
	C574.707764,712.576904 563.678528,726.614319 553.063049,740.845215 
	C532.387146,768.562805 515.733215,798.683655 502.475372,830.602417 
	C490.782440,858.753662 481.940826,887.839600 476.431000,917.839417 
	C471.356262,945.470093 467.732727,973.323914 468.211517,1001.477295 
	C468.465240,1016.397278 469.729736,1031.322632 471.082428,1046.196167 
	C473.220856,1069.708252 477.877716,1092.797729 484.071198,1116.412231 
z"/>
<path fill="#AB9B59" opacity="1.000000" stroke="none" 
	d="
M483.960968,1116.018799 
	C477.877716,1092.797729 473.220856,1069.708252 471.082428,1046.196167 
	C469.729736,1031.322632 468.465240,1016.397278 468.211517,1001.477295 
	C467.732727,973.323914 471.356262,945.470093 476.431000,917.839417 
	C481.940826,887.839600 490.782440,858.753662 502.475372,830.602417 
	C515.733215,798.683655 532.387146,768.562805 553.063049,740.845215 
	C563.678528,726.614319 574.707764,712.576904 586.718079,699.526978 
	C608.039246,676.360229 631.341736,655.141235 657.738892,637.871399 
	C677.732971,624.790649 698.181152,612.165527 719.433350,601.306702 
	C745.958252,587.753845 774.001038,577.499268 803.171509,570.910950 
	C820.465881,567.005005 837.844910,563.351440 855.330322,560.456970 
	C866.920837,558.538330 878.791626,558.381104 890.493713,557.053833 
	C913.500549,554.444275 936.281433,556.910583 959.017334,559.902100 
	C974.618103,561.954773 990.247620,564.074219 1005.668640,567.145935 
	C1033.114746,572.612793 1059.578125,581.418396 1085.374390,592.286865 
	C1110.136108,602.719421 1133.964478,615.023926 1155.942139,630.384949 
	C1173.881348,642.923279 1191.173340,656.516357 1207.852905,670.699585 
	C1237.055664,695.531677 1261.412231,724.839478 1282.535156,756.723450 
	C1298.543335,780.886963 1312.015381,806.465027 1322.994019,833.379517 
	C1333.005249,857.922424 1340.737793,883.150085 1346.177246,909.002380 
	C1349.650269,925.507568 1352.093872,942.316345 1353.648315,959.114014 
	C1355.253662,976.459351 1356.128784,993.980774 1355.653198,1011.379517 
	C1355.182983,1028.580444 1352.784912,1045.741455 1350.943481,1062.888916 
	C1348.739990,1083.407349 1344.146973,1103.448975 1338.330078,1123.234131 
	C1331.092651,1147.850952 1321.923462,1171.674683 1310.691895,1194.776733 
	C1297.912231,1221.062744 1282.590820,1245.724487 1264.904053,1268.913574 
	C1237.889404,1304.332153 1206.293701,1335.049316 1170.024536,1361.012085 
	C1148.308105,1376.557495 1125.487305,1390.184814 1101.384521,1401.563477 
	C1068.646362,1417.018555 1034.531128,1428.442993 998.888062,1435.229858 
	C978.479858,1439.115967 958.025879,1442.406006 937.221130,1442.977539 
	C923.918823,1443.343018 910.577393,1444.316528 897.317810,1443.679321 
	C881.445740,1442.916504 865.512939,1441.518677 849.841431,1438.957764 
	C829.894409,1435.698242 809.936768,1431.919556 790.425415,1426.710327 
	C757.879639,1418.020874 727.087036,1404.736694 697.573853,1388.378174 
	C674.508362,1375.593262 652.722717,1360.958618 632.369507,1344.306519 
	C610.979858,1326.806396 591.368042,1307.449463 573.428528,1286.303589 
	C552.985352,1262.206787 535.427429,1236.236450 520.577759,1208.463501 
	C508.497528,1185.870239 497.980743,1162.523315 490.786011,1137.815186 
	C488.696014,1130.637695 486.317474,1123.544189 483.960968,1116.018799 
M1069.934082,588.376953 
	C1032.340942,574.110901 993.550171,565.309082 953.488159,561.422546 
	C923.828125,558.545105 894.277283,558.658691 864.760437,561.948547 
	C834.937439,565.272522 805.642883,571.261108 777.003845,580.545410 
	C746.602905,590.400879 717.598511,603.220337 689.982178,619.233643 
	C644.092346,645.842773 604.364990,679.817444 570.764526,720.752319 
	C532.997620,766.763306 505.740723,818.484253 488.880493,875.646729 
	C477.547638,914.069519 471.968750,953.387817 470.812622,993.323669 
	C470.054504,1019.510864 472.812775,1045.505981 476.803711,1071.388916 
	C482.113586,1105.826050 491.737274,1139.007935 505.144562,1171.120850 
	C526.908508,1223.249512 557.665649,1269.459351 597.238281,1309.717285 
	C627.195984,1340.193848 660.964233,1365.692139 698.363525,1386.507202 
	C744.758850,1412.329224 794.297729,1428.804565 846.612061,1436.788330 
	C882.115601,1442.206665 917.848999,1443.214722 953.705872,1439.615845 
	C990.350098,1435.937866 1026.085815,1428.420288 1060.750488,1415.993652 
	C1130.166992,1391.109253 1189.693848,1351.328491 1239.280396,1296.770386 
	C1278.888306,1253.191284 1308.674194,1203.608032 1328.125000,1148.041992 
	C1349.494995,1086.993408 1357.579102,1024.186157 1351.391235,959.646179 
	C1347.829102,922.492249 1340.214355,886.252869 1327.494263,851.149292 
	C1302.979980,783.497498 1264.404053,725.135986 1211.523071,676.279663 
	C1170.166992,638.070862 1123.184937,608.904785 1069.934082,588.376953 
z"/>
<path fill="#010101" opacity="1.000000" stroke="none" 
	d="
M1070.295532,588.516113 
	C1123.184937,608.904785 1170.166992,638.070862 1211.523071,676.279663 
	C1264.404053,725.135986 1302.979980,783.497498 1327.494263,851.149292 
	C1340.214355,886.252869 1347.829102,922.492249 1351.391235,959.646179 
	C1357.579102,1024.186157 1349.494995,1086.993408 1328.125000,1148.041992 
	C1308.674194,1203.608032 1278.888306,1253.191284 1239.280396,1296.770386 
	C1189.693848,1351.328491 1130.166992,1391.109253 1060.750488,1415.993652 
	C1026.085815,1428.420288 990.350098,1435.937866 953.705872,1439.615845 
	C917.848999,1443.214722 882.115601,1442.206665 846.612061,1436.788330 
	C794.297729,1428.804565 744.758850,1412.329224 698.363525,1386.507202 
	C660.964233,1365.692139 627.195984,1340.193848 597.238281,1309.717285 
	C557.665649,1269.459351 526.908508,1223.249512 505.144562,1171.120850 
	C491.737274,1139.007935 482.113586,1105.826050 476.803711,1071.388916 
	C472.812775,1045.505981 470.054504,1019.510864 470.812622,993.323669 
	C471.968750,953.387817 477.547638,914.069519 488.880493,875.646729 
	C505.740723,818.484253 532.997620,766.763306 570.764526,720.752319 
	C604.364990,679.817444 644.092346,645.842773 689.982178,619.233643 
	C717.598511,603.220337 746.602905,590.400879 777.003845,580.545410 
	C805.642883,571.261108 834.937439,565.272522 864.760437,561.948547 
	C894.277283,558.658691 923.828125,558.545105 953.488159,561.422546 
	C993.550171,565.309082 1032.340942,574.110901 1070.295532,588.516113 
M736.721497,971.224060 
	C739.082031,968.645386 741.517090,966.130432 743.788330,963.475281 
	C749.218567,957.127380 752.059448,949.791565 751.250854,941.394531 
	C750.597534,934.610291 749.995667,927.757202 748.505859,921.129150 
	C743.747986,899.961792 736.105957,879.918640 724.556396,861.406555 
	C708.411682,835.529236 686.872253,818.510315 655.122864,816.707947 
	C638.736633,815.777710 624.702759,820.170288 612.669373,831.414551 
	C602.374512,841.034241 594.893250,852.542908 589.618958,865.420654 
	C584.034790,879.055176 578.238037,892.706665 574.149170,906.818726 
	C570.446899,919.596313 569.200073,933.065186 566.355164,946.116882 
	C563.567871,958.903931 566.069092,971.076782 570.991150,982.517395 
	C580.662476,1004.996887 600.609253,1014.901184 622.719543,1019.928894 
	C637.552002,1023.301819 652.875977,1020.899780 667.356323,1015.690430 
	C693.609314,1006.245911 716.530762,991.490662 736.721497,971.224060 
M842.123657,1254.909912 
	C843.139771,1220.547729 832.974304,1189.316406 815.888062,1159.914062 
	C808.916748,1147.917480 798.703064,1142.310303 785.092529,1140.742920 
	C759.862244,1137.837891 735.187561,1140.082275 710.962402,1147.221924 
	C688.732727,1153.773682 669.826843,1164.964111 658.073547,1186.114624 
	C643.570374,1212.213623 643.880066,1234.840210 662.462097,1256.071777 
	C689.438782,1286.895020 722.994934,1308.626221 762.199646,1320.801270 
	C780.863220,1326.597290 798.593506,1323.294800 813.651001,1310.106689 
	C830.078003,1295.718994 840.644043,1278.130249 842.123657,1254.909912 
M1174.928711,1197.474854 
	C1166.039795,1171.293091 1148.832886,1153.463013 1122.391479,1144.666992 
	C1094.471924,1135.379150 1066.031616,1133.827881 1037.028931,1137.804199 
	C1022.550598,1139.789062 1012.742310,1147.273804 1006.101990,1160.129761 
	C994.410767,1182.764404 986.919128,1206.574829 984.728149,1231.960327 
	C982.613098,1256.466187 987.410461,1278.775269 1004.346924,1297.912842 
	C1022.910156,1318.888428 1045.278687,1325.784790 1071.337158,1315.684814 
	C1106.260742,1302.148682 1136.012329,1280.689941 1160.925659,1252.840576 
	C1174.791260,1237.340942 1180.964966,1219.197754 1174.928711,1197.474854 
M812.315125,698.614319 
	C808.489380,719.740173 813.255737,738.886108 825.358643,756.462463 
	C843.287842,782.499817 867.274231,801.277771 895.174622,815.534058 
	C906.963928,821.558044 918.251343,821.163574 930.023254,815.154358 
	C954.570374,802.623474 975.949158,786.211548 993.059753,764.588989 
	C1006.437195,747.684082 1014.902283,729.018860 1013.043152,706.566406 
	C1011.204346,684.360046 1003.335754,665.741638 982.526794,655.624084 
	C972.973999,650.979431 962.197510,648.116760 951.657227,646.377075 
	C920.999390,641.317139 890.260437,641.805176 859.854309,648.642029 
	C833.038086,654.671631 816.800537,671.765137 812.315125,698.614319 
M905.157227,933.877014 
	C866.288757,938.779541 838.907959,974.657959 845.776001,1011.687073 
	C854.308716,1057.691528 903.608459,1081.538208 944.745361,1059.142700 
	C970.254333,1045.255249 984.069336,1016.524658 978.226685,988.097351 
	C971.077026,953.311218 941.440308,931.473633 905.157227,933.877014 
M1207.236938,830.248596 
	C1200.936401,826.959534 1194.975220,822.100952 1188.276733,820.651794 
	C1158.476562,814.205017 1133.203369,823.330688 1113.422363,846.169373 
	C1092.359619,870.488037 1081.247559,899.568298 1075.748901,930.953125 
	C1073.571655,943.380554 1074.580566,954.726929 1084.010498,964.817322 
	C1105.382568,987.686279 1130.459839,1004.522949 1160.093506,1014.604065 
	C1184.349976,1022.855774 1207.370850,1020.209412 1229.100952,1006.741455 
	C1236.815674,1001.959961 1243.501099,996.017639 1248.255371,988.095947 
	C1257.453613,972.769104 1257.946411,956.133972 1255.290771,939.206726 
	C1251.554810,915.392151 1244.481689,892.502625 1234.795776,870.439880 
	C1228.255371,855.541870 1220.414429,841.482849 1207.236938,830.248596 
z"/>
<path fill="#F3C50B" opacity="1.000000" stroke="none" 
	d="
M736.472595,971.474243 
	C716.530762,991.490662 693.609314,1006.245911 667.356323,1015.690430 
	C652.875977,1020.899780 637.552002,1023.301819 622.719543,1019.928894 
	C600.609253,1014.901184 580.662476,1004.996887 570.991150,982.517395 
	C566.069092,971.076782 563.567871,958.903931 566.355164,946.116882 
	C569.200073,933.065186 570.446899,919.596313 574.149170,906.818726 
	C578.238037,892.706665 584.034790,879.055176 589.618958,865.420654 
	C594.893250,852.542908 602.374512,841.034241 612.669373,831.414551 
	C624.702759,820.170288 638.736633,815.777710 655.122864,816.707947 
	C686.872253,818.510315 708.411682,835.529236 724.556396,861.406555 
	C736.105957,879.918640 743.747986,899.961792 748.505859,921.129150 
	C749.995667,927.757202 750.597534,934.610291 751.250854,941.394531 
	C752.059448,949.791565 749.218567,957.127380 743.788330,963.475281 
	C741.517090,966.130432 739.082031,968.645386 736.472595,971.474243 
M725.374146,889.243042 
	C724.352722,886.611145 723.718262,883.735474 722.240723,881.390991 
	C716.790344,872.742371 710.718567,864.471985 705.522156,855.680054 
	C698.845398,844.383606 688.324280,838.491577 676.719666,834.161011 
	C670.300537,831.765564 663.574951,829.740173 656.815857,828.846802 
	C651.241760,828.110107 644.888245,827.918945 639.805176,829.881714 
	C627.447083,834.653564 615.648376,840.665771 609.620178,853.912903 
	C603.950073,866.372742 596.785278,878.228394 592.009644,890.997437 
	C587.406921,903.303894 584.829956,916.392639 581.709717,929.222046 
	C578.476379,942.516113 577.642883,955.869873 579.962341,969.573669 
	C582.296997,983.367371 590.180176,992.778931 601.637207,999.223389 
	C612.861328,1005.536926 625.005981,1009.869751 638.301453,1008.283569 
	C646.305115,1007.328735 654.421875,1006.496216 662.163757,1004.407654 
	C669.789978,1002.350342 677.448364,999.557190 684.297913,995.682251 
	C693.901184,990.249573 702.968811,983.790344 711.897522,977.266602 
	C721.505310,970.246582 730.475830,962.387634 736.914612,952.193909 
	C738.319092,949.970398 738.777771,947.018433 739.199036,944.327881 
	C740.986572,932.911743 735.386719,922.764893 733.176147,912.056335 
	C731.615601,904.497070 728.254028,897.309692 725.374146,889.243042 
z"/>
<path fill="#F2C81C" opacity="1.000000" stroke="none" 
	d="
M842.065308,1255.358521 
	C840.644043,1278.130249 830.078003,1295.718994 813.651001,1310.106689 
	C798.593506,1323.294800 780.863220,1326.597290 762.199646,1320.801270 
	C722.994934,1308.626221 689.438782,1286.895020 662.462097,1256.071777 
	C643.880066,1234.840210 643.570374,1212.213623 658.073547,1186.114624 
	C669.826843,1164.964111 688.732727,1153.773682 710.962402,1147.221924 
	C735.187561,1140.082275 759.862244,1137.837891 785.092529,1140.742920 
	C798.703064,1142.310303 808.916748,1147.917480 815.888062,1159.914062 
	C832.974304,1189.316406 843.139771,1220.547729 842.065308,1255.358521 
M826.153931,1208.615845 
	C824.967773,1204.988892 824.057190,1201.242065 822.542603,1197.757935 
	C818.311279,1188.024170 814.267822,1178.164795 809.273193,1168.824097 
	C806.546509,1163.724854 802.916077,1157.873291 798.125977,1155.413818 
	C791.594971,1152.060913 783.642395,1150.704590 776.169495,1150.102295 
	C753.073425,1148.241089 730.676208,1152.408081 708.548645,1158.958984 
	C683.495789,1166.376099 667.637634,1182.724243 660.040771,1207.307495 
	C658.603699,1211.957886 658.371094,1217.132935 658.413635,1222.058838 
	C658.532227,1235.809814 666.065735,1246.238403 674.902466,1255.714478 
	C689.427856,1271.290771 707.285339,1282.649170 725.301331,1293.568848 
	C737.758545,1301.119629 751.066101,1306.927856 765.271973,1310.989258 
	C778.231628,1314.694458 790.061279,1313.069214 800.916565,1306.295532 
	C807.363770,1302.272339 812.737915,1296.318481 818.033386,1290.703491 
	C830.092346,1277.917114 832.255310,1261.589966 831.702087,1245.224487 
	C831.297241,1233.247681 828.174683,1221.362671 826.153931,1208.615845 
z"/>
<path fill="#F2C81D" opacity="1.000000" stroke="none" 
	d="
M1175.037354,1197.864502 
	C1180.964966,1219.197754 1174.791260,1237.340942 1160.925659,1252.840576 
	C1136.012329,1280.689941 1106.260742,1302.148682 1071.337158,1315.684814 
	C1045.278687,1325.784790 1022.910156,1318.888428 1004.346924,1297.912842 
	C987.410461,1278.775269 982.613098,1256.466187 984.728149,1231.960327 
	C986.919128,1206.574829 994.410767,1182.764404 1006.101990,1160.129761 
	C1012.742310,1147.273804 1022.550598,1139.789062 1037.028931,1137.804199 
	C1066.031616,1133.827881 1094.471924,1135.379150 1122.391479,1144.666992 
	C1148.832886,1153.463013 1166.039795,1171.293091 1175.037354,1197.864502 
M1088.441528,1297.083740 
	C1094.046387,1293.555176 1099.684204,1290.077759 1105.250122,1286.488892 
	C1123.891479,1274.469116 1141.914795,1261.655029 1155.148926,1243.447021 
	C1158.993164,1238.157959 1162.875488,1232.395874 1164.703247,1226.245361 
	C1168.518433,1213.407104 1167.272217,1200.732788 1160.021729,1188.924683 
	C1155.069824,1180.859741 1150.873047,1172.222900 1142.812256,1166.672119 
	C1124.388672,1153.985596 1103.543701,1148.059814 1081.550049,1146.939331 
	C1067.169189,1146.206665 1052.669067,1147.270264 1038.251099,1148.058838 
	C1031.732056,1148.415161 1025.052368,1150.576294 1021.056885,1155.892700 
	C1011.072021,1169.179199 1005.674805,1184.807617 1001.056702,1200.529053 
	C998.317261,1209.855103 997.229858,1219.677124 995.559692,1229.303833 
	C993.629028,1240.432495 994.757385,1251.462036 996.794312,1262.479492 
	C998.828186,1273.481323 1004.732056,1282.116333 1011.586365,1290.775391 
	C1024.682007,1307.319092 1044.027588,1312.829834 1062.965942,1307.407227 
	C1071.489380,1304.966553 1079.516968,1300.794678 1088.441528,1297.083740 
z"/>
<path fill="#F2C81D" opacity="1.000000" stroke="none" 
	d="
M812.335815,698.176636 
	C816.800537,671.765137 833.038086,654.671631 859.854309,648.642029 
	C890.260437,641.805176 920.999390,641.317139 951.657227,646.377075 
	C962.197510,648.116760 972.973999,650.979431 982.526794,655.624084 
	C1003.335754,665.741638 1011.204346,684.360046 1013.043152,706.566406 
	C1014.902283,729.018860 1006.437195,747.684082 993.059753,764.588989 
	C975.949158,786.211548 954.570374,802.623474 930.023254,815.154358 
	C918.251343,821.163574 906.963928,821.558044 895.174622,815.534058 
	C867.274231,801.277771 843.287842,782.499817 825.358643,756.462463 
	C813.255737,738.886108 808.489380,719.740173 812.335815,698.176636 
M1002.179077,707.570312 
	C1001.587891,702.637451 1001.337585,697.634338 1000.338867,692.785400 
	C997.769348,680.310608 990.579468,671.152222 979.339050,665.231506 
	C963.192383,656.726379 945.507812,654.505554 927.740356,654.055481 
	C912.146301,653.660461 896.503784,654.854004 880.892456,655.561157 
	C867.048706,656.188293 854.090149,659.964355 842.116150,667.080627 
	C835.622742,670.939819 830.350037,675.938171 827.508423,682.961060 
	C818.258484,705.821716 819.119080,728.135498 832.432556,749.243530 
	C839.917053,761.109863 849.510559,771.173523 860.259644,780.318237 
	C872.618225,790.832397 886.010742,799.574402 900.450256,806.790283 
	C908.527832,810.826843 916.701294,810.836426 924.692200,806.295227 
	C928.579956,804.085876 932.438660,801.823669 936.358582,799.673035 
	C955.073120,789.405701 971.101562,776.036072 984.492249,759.328613 
	C996.458984,744.397705 1004.135315,728.214294 1002.179077,707.570312 
z"/>
<path fill="#F2C81C" opacity="1.000000" stroke="none" 
	d="
M905.604614,933.818481 
	C941.440308,931.473633 971.077026,953.311218 978.226685,988.097351 
	C984.069336,1016.524658 970.254333,1045.255249 944.745361,1059.142700 
	C903.608459,1081.538208 854.308716,1057.691528 845.776001,1011.687073 
	C838.907959,974.657959 866.288757,938.779541 905.604614,933.818481 
M856.393188,1005.287598 
	C856.652832,1008.428101 856.405029,1011.713196 857.252380,1014.686157 
	C864.138184,1038.845581 880.336975,1052.696289 904.890503,1057.049805 
	C919.355225,1059.614624 932.137085,1054.757690 944.241943,1047.648071 
	C961.419189,1037.559082 972.476318,1011.092590 967.495789,988.940002 
	C959.904480,955.175293 929.541077,939.063904 899.591858,945.376892 
	C878.850342,949.748962 864.532471,962.518616 858.568542,983.219299 
	C856.611450,990.012451 853.924622,997.066345 856.393188,1005.287598 
z"/>
<path fill="#B19F58" opacity="1.000000" stroke="none" 
	d="
M1207.504395,830.481384 
	C1220.414429,841.482849 1228.255371,855.541870 1234.795776,870.439880 
	C1244.481689,892.502625 1251.554810,915.392151 1255.290771,939.206726 
	C1257.946411,956.133972 1257.453613,972.769104 1248.255371,988.095947 
	C1243.501099,996.017639 1236.815674,1001.959961 1229.100952,1006.741455 
	C1207.370850,1020.209412 1184.349976,1022.855774 1160.093506,1014.604065 
	C1130.459839,1004.522949 1105.382568,987.686279 1084.010498,964.817322 
	C1074.580566,954.726929 1073.571655,943.380554 1075.748901,930.953125 
	C1081.247559,899.568298 1092.359619,870.488037 1113.422363,846.169373 
	C1133.203369,823.330688 1158.476562,814.205017 1188.276733,820.651794 
	C1194.975220,822.100952 1200.936401,826.959534 1207.504395,830.481384 
M1087.005249,965.453064 
	C1103.358643,982.648438 1122.356079,996.299988 1143.960083,1005.928284 
	C1162.921631,1014.379089 1182.586792,1020.635254 1203.785645,1015.056824 
	C1218.993896,1011.054871 1232.960083,1004.568665 1243.071045,991.989441 
	C1254.431885,977.855042 1255.750977,960.954712 1253.620239,944.052979 
	C1249.744141,913.304749 1239.999146,884.182129 1225.804321,856.646973 
	C1220.762329,846.866455 1214.261597,837.881287 1205.338135,831.218445 
	C1192.856567,821.898560 1178.814087,819.737061 1163.361328,821.625244 
	C1140.912964,824.368164 1123.731689,835.232727 1110.396240,852.826416 
	C1095.189331,872.889099 1085.717407,895.649170 1080.223633,920.067749 
	C1078.557129,927.475098 1077.771484,935.118042 1077.083496,942.698547 
	C1076.270508,951.657532 1080.685547,958.655884 1087.005249,965.453064 
z"/>
<path fill="#FFFFFD" opacity="1.000000" stroke="none" 
	d="
M725.535339,889.599609 
	C728.254028,897.309692 731.615601,904.497070 733.176147,912.056335 
	C735.386719,922.764893 740.986572,932.911743 739.199036,944.327881 
	C738.777771,947.018433 738.319092,949.970398 736.914612,952.193909 
	C730.475830,962.387634 721.505310,970.246582 711.897522,977.266602 
	C702.968811,983.790344 693.901184,990.249573 684.297913,995.682251 
	C677.448364,999.557190 669.789978,1002.350342 662.163757,1004.407654 
	C654.421875,1006.496216 646.305115,1007.328735 638.301453,1008.283569 
	C625.005981,1009.869751 612.861328,1005.536926 601.637207,999.223389 
	C590.180176,992.778931 582.296997,983.367371 579.962341,969.573669 
	C577.642883,955.869873 578.476379,942.516113 581.709717,929.222046 
	C584.829956,916.392639 587.406921,903.303894 592.009644,890.997437 
	C596.785278,878.228394 603.950073,866.372742 609.620178,853.912903 
	C615.648376,840.665771 627.447083,834.653564 639.805176,829.881714 
	C644.888245,827.918945 651.241760,828.110107 656.815857,828.846802 
	C663.574951,829.740173 670.300537,831.765564 676.719666,834.161011 
	C688.324280,838.491577 698.845398,844.383606 705.522156,855.680054 
	C710.718567,864.471985 716.790344,872.742371 722.240723,881.390991 
	C723.718262,883.735474 724.352722,886.611145 725.535339,889.599609 
z"/>
<path fill="#FFFFFD" opacity="1.000000" stroke="none" 
	d="
M826.208679,1209.026367 
	C828.174683,1221.362671 831.297241,1233.247681 831.702087,1245.224487 
	C832.255310,1261.589966 830.092346,1277.917114 818.033386,1290.703491 
	C812.737915,1296.318481 807.363770,1302.272339 800.916565,1306.295532 
	C790.061279,1313.069214 778.231628,1314.694458 765.271973,1310.989258 
	C751.066101,1306.927856 737.758545,1301.119629 725.301331,1293.568848 
	C707.285339,1282.649170 689.427856,1271.290771 674.902466,1255.714478 
	C666.065735,1246.238403 658.532227,1235.809814 658.413635,1222.058838 
	C658.371094,1217.132935 658.603699,1211.957886 660.040771,1207.307495 
	C667.637634,1182.724243 683.495789,1166.376099 708.548645,1158.958984 
	C730.676208,1152.408081 753.073425,1148.241089 776.169495,1150.102295 
	C783.642395,1150.704590 791.594971,1152.060913 798.125977,1155.413818 
	C802.916077,1157.873291 806.546509,1163.724854 809.273193,1168.824097 
	C814.267822,1178.164795 818.311279,1188.024170 822.542603,1197.757935 
	C824.057190,1201.242065 824.967773,1204.988892 826.208679,1209.026367 
z"/>
<path fill="#FFFFFD" opacity="1.000000" stroke="none" 
	d="
M1088.105469,1297.246094 
	C1079.516968,1300.794678 1071.489380,1304.966553 1062.965942,1307.407227 
	C1044.027588,1312.829834 1024.682007,1307.319092 1011.586365,1290.775391 
	C1004.732056,1282.116333 998.828186,1273.481323 996.794312,1262.479492 
	C994.757385,1251.462036 993.629028,1240.432495 995.559692,1229.303833 
	C997.229858,1219.677124 998.317261,1209.855103 1001.056702,1200.529053 
	C1005.674805,1184.807617 1011.072021,1169.179199 1021.056885,1155.892700 
	C1025.052368,1150.576294 1031.732056,1148.415161 1038.251099,1148.058838 
	C1052.669067,1147.270264 1067.169189,1146.206665 1081.550049,1146.939331 
	C1103.543701,1148.059814 1124.388672,1153.985596 1142.812256,1166.672119 
	C1150.873047,1172.222900 1155.069824,1180.859741 1160.021729,1188.924683 
	C1167.272217,1200.732788 1168.518433,1213.407104 1164.703247,1226.245361 
	C1162.875488,1232.395874 1158.993164,1238.157959 1155.148926,1243.447021 
	C1141.914795,1261.655029 1123.891479,1274.469116 1105.250122,1286.488892 
	C1099.684204,1290.077759 1094.046387,1293.555176 1088.105469,1297.246094 
z"/>
<path fill="#FFFFFD" opacity="1.000000" stroke="none" 
	d="
M1002.181030,708.060425 
	C1004.135315,728.214294 996.458984,744.397705 984.492249,759.328613 
	C971.101562,776.036072 955.073120,789.405701 936.358582,799.673035 
	C932.438660,801.823669 928.579956,804.085876 924.692200,806.295227 
	C916.701294,810.836426 908.527832,810.826843 900.450256,806.790283 
	C886.010742,799.574402 872.618225,790.832397 860.259644,780.318237 
	C849.510559,771.173523 839.917053,761.109863 832.432556,749.243530 
	C819.119080,728.135498 818.258484,705.821716 827.508423,682.961060 
	C830.350037,675.938171 835.622742,670.939819 842.116150,667.080627 
	C854.090149,659.964355 867.048706,656.188293 880.892456,655.561157 
	C896.503784,654.854004 912.146301,653.660461 927.740356,654.055481 
	C945.507812,654.505554 963.192383,656.726379 979.339050,665.231506 
	C990.579468,671.152222 997.769348,680.310608 1000.338867,692.785400 
	C1001.337585,697.634338 1001.587891,702.637451 1002.181030,708.060425 
z"/>
<path fill="#FFFEFC" opacity="1.000000" stroke="none" 
	d="
M856.230835,1004.890747 
	C853.924622,997.066345 856.611450,990.012451 858.568542,983.219299 
	C864.532471,962.518616 878.850342,949.748962 899.591858,945.376892 
	C929.541077,939.063904 959.904480,955.175293 967.495789,988.940002 
	C972.476318,1011.092590 961.419189,1037.559082 944.241943,1047.648071 
	C932.137085,1054.757690 919.355225,1059.614624 904.890503,1057.049805 
	C880.336975,1052.696289 864.138184,1038.845581 857.252380,1014.686157 
	C856.405029,1011.713196 856.652832,1008.428101 856.230835,1004.890747 
z"/>
<path fill="#FECE0E" opacity="1.000000" stroke="none" 
	d="
M1086.774902,965.182739 
	C1080.685547,958.655884 1076.270508,951.657532 1077.083496,942.698547 
	C1077.771484,935.118042 1078.557129,927.475098 1080.223633,920.067749 
	C1085.717407,895.649170 1095.189331,872.889099 1110.396240,852.826416 
	C1123.731689,835.232727 1140.912964,824.368164 1163.361328,821.625244 
	C1178.814087,819.737061 1192.856567,821.898560 1205.338135,831.218445 
	C1214.261597,837.881287 1220.762329,846.866455 1225.804321,856.646973 
	C1239.999146,884.182129 1249.744141,913.304749 1253.620239,944.052979 
	C1255.750977,960.954712 1254.431885,977.855042 1243.071045,991.989441 
	C1232.960083,1004.568665 1218.993896,1011.054871 1203.785645,1015.056824 
	C1182.586792,1020.635254 1162.921631,1014.379089 1143.960083,1005.928284 
	C1122.356079,996.299988 1103.358643,982.648438 1086.774902,965.182739 
M1238.705933,914.891357 
	C1237.853516,911.352356 1237.157959,907.766724 1236.122437,904.282043 
	C1230.431885,885.129028 1222.629883,866.892517 1211.684570,850.131226 
	C1204.441772,839.040100 1194.155029,832.236572 1181.092529,829.610291 
	C1171.092163,827.599609 1161.691650,830.029053 1152.214233,832.795471 
	C1141.457397,835.935364 1131.657837,840.770386 1124.261841,849.242981 
	C1110.613037,864.878845 1099.982300,882.356018 1094.216797,902.478394 
	C1092.171265,909.617310 1090.115967,916.793457 1088.773926,924.083008 
	C1087.326660,931.944214 1086.638428,939.950867 1085.808716,947.913818 
	C1085.686035,949.090881 1086.285889,950.667297 1087.097290,951.566223 
	C1093.417236,958.567932 1099.209473,966.260010 1106.448608,972.164795 
	C1115.775879,979.772827 1126.129883,986.181213 1136.341064,992.632446 
	C1150.720703,1001.717285 1166.715942,1006.405701 1183.521484,1008.243774 
	C1195.798218,1009.586548 1207.322632,1005.916870 1218.177490,1000.927307 
	C1233.704712,993.789917 1243.393677,981.482056 1245.031738,964.186523 
	C1246.595581,947.675537 1243.653320,931.520935 1238.705933,914.891357 
z"/>
<path fill="#FFFFFD" opacity="1.000000" stroke="none" 
	d="
M1238.796387,915.296387 
	C1243.653320,931.520935 1246.595581,947.675537 1245.031738,964.186523 
	C1243.393677,981.482056 1233.704712,993.789917 1218.177490,1000.927307 
	C1207.322632,1005.916870 1195.798218,1009.586548 1183.521484,1008.243774 
	C1166.715942,1006.405701 1150.720703,1001.717285 1136.341064,992.632446 
	C1126.129883,986.181213 1115.775879,979.772827 1106.448608,972.164795 
	C1099.209473,966.260010 1093.417236,958.567932 1087.097290,951.566223 
	C1086.285889,950.667297 1085.686035,949.090881 1085.808716,947.913818 
	C1086.638428,939.950867 1087.326660,931.944214 1088.773926,924.083008 
	C1090.115967,916.793457 1092.171265,909.617310 1094.216797,902.478394 
	C1099.982300,882.356018 1110.613037,864.878845 1124.261841,849.242981 
	C1131.657837,840.770386 1141.457397,835.935364 1152.214233,832.795471 
	C1161.691650,830.029053 1171.092163,827.599609 1181.092529,829.610291 
	C1194.155029,832.236572 1204.441772,839.040100 1211.684570,850.131226 
	C1222.629883,866.892517 1230.431885,885.129028 1236.122437,904.282043 
	C1237.157959,907.766724 1237.853516,911.352356 1238.796387,915.296387 
z"/>
</svg>